<svg width="541" height="142" viewBox="0 0 541 142" fill="none" xmlns="http://www.w3.org/2000/svg">
<path d="M539.913 133.903L539.913 133.903L539.913 133.889C539.892 132.049 539.201 130.465 537.859 129.162C536.538 127.863 534.965 127.202 533.163 127.202C531.308 127.202 529.704 127.86 528.38 129.164C527.055 130.468 526.394 132.055 526.413 133.895C526.394 135.77 527.053 137.376 528.38 138.683C529.704 139.987 531.308 140.645 533.163 140.645C534.366 140.645 535.477 140.348 536.485 139.751L536.486 139.751L536.488 139.75C537.504 139.14 538.32 138.325 538.93 137.309C539.566 136.283 539.892 135.144 539.913 133.903Z" fill="#121314" stroke="black"/>
<path d="M492.065 139.52V125.049L495.255 121.629L508.26 139.811L508.41 140.02H508.667H520.968H521.946L521.373 139.227L503.698 114.753L520.346 96.2177L521.095 95.3836H519.974H507.957H507.733L507.584 95.5502L492.065 112.897V81.3381V80.8381H491.565H481.281H480.781V81.3381V139.52V140.02H481.281H491.565H492.065V139.52Z" fill="#121314" stroke="black"/>
<path d="M449.062 139.52V140.02H449.562H459.846H460.346V139.52V113.867C460.346 112.09 460.753 110.543 461.553 109.209C462.358 107.867 463.456 106.821 464.856 106.068L464.858 106.067C466.273 105.296 467.875 104.906 469.675 104.906C470.521 104.906 471.397 104.971 472.304 105.1L472.304 105.1L472.315 105.102C473.255 105.214 473.902 105.342 474.284 105.475L474.948 105.706V105.003V95.5426V95.1327L474.546 95.0524C474.042 94.9516 473.422 94.8835 472.692 94.8448C471.983 94.7876 471.337 94.7585 470.755 94.7585C468.157 94.7585 465.829 95.4791 463.79 96.9242C462.137 98.0915 460.886 99.6585 460.033 101.609V95.8835V95.3835H459.533H449.562H449.062V95.8835V139.52Z" fill="#121314" stroke="black"/>
<path d="M408.502 139.378L408.506 139.38C410.795 140.397 413.356 140.901 416.181 140.901C418.498 140.901 420.539 140.582 422.292 139.932L422.295 139.931C424.049 139.268 425.519 138.394 426.693 137.3L426.693 137.3C427.541 136.509 428.256 135.671 428.835 134.788V139.52V140.02H429.335H439.221H439.721V139.52V110.315C439.721 107.36 439.18 104.857 438.069 102.832C436.991 100.833 435.553 99.2446 433.756 98.0788C431.982 96.9095 430.025 96.0727 427.887 95.5674C425.767 95.0662 423.635 94.8154 421.494 94.8154C418.395 94.8154 415.553 95.2772 412.973 96.2081C410.387 97.1221 408.19 98.5067 406.391 100.364C404.585 102.21 403.296 104.501 402.519 107.223L402.361 107.775L402.929 107.856L412.531 109.219L412.941 109.278L413.075 108.886C413.549 107.499 414.465 106.28 415.856 105.233C417.22 104.219 419.101 103.685 421.55 103.685C423.859 103.685 425.547 104.252 426.694 105.313C427.837 106.371 428.437 107.881 428.437 109.918V110.088C428.437 110.927 428.135 111.485 427.56 111.854C426.933 112.25 425.865 112.579 424.295 112.803C422.711 113.01 420.643 113.246 418.09 113.511L418.088 113.511C415.944 113.741 413.866 114.114 411.854 114.632C409.84 115.135 408.021 115.883 406.402 116.878C404.758 117.888 403.458 119.238 402.507 120.922C401.544 122.627 401.079 124.755 401.079 127.276C401.079 130.21 401.73 132.715 403.063 134.764L403.065 134.767C404.406 136.799 406.223 138.337 408.502 139.378ZM427.289 128.066L427.286 128.07C426.521 129.35 425.425 130.389 423.982 131.183C422.553 131.95 420.849 132.344 418.852 132.344C416.786 132.344 415.132 131.878 413.854 130.985C412.623 130.125 411.994 128.859 411.994 127.105C411.994 125.87 412.318 124.913 412.927 124.188L412.927 124.188L412.931 124.184C413.568 123.409 414.449 122.792 415.596 122.344C416.765 121.887 418.099 121.555 419.601 121.351L419.602 121.35C420.285 121.256 421.09 121.142 422.019 121.009C422.953 120.876 423.896 120.723 424.849 120.552C425.81 120.379 426.681 120.176 427.46 119.942C427.833 119.833 428.171 119.715 428.465 119.587V123.867C428.465 125.385 428.074 126.781 427.289 128.066Z" fill="#121314" stroke="black"/>
<path d="M395.523 95.8836V95.3836H395.023H386.915V85.429V84.929H386.415H376.131H375.631V85.429V95.3836H369.938H369.438V95.8836V103.838V104.338H369.938H375.631V128.098C375.612 130.898 376.215 133.273 377.475 135.192L377.477 135.195C378.745 137.097 380.461 138.504 382.613 139.412L382.617 139.414C384.755 140.297 387.146 140.694 389.781 140.616C391.259 140.578 392.524 140.443 393.57 140.207C394.599 139.978 395.406 139.765 395.982 139.566L396.401 139.422L396.308 138.988L394.575 130.949L394.464 130.436L393.957 130.571C393.695 130.641 393.296 130.723 392.751 130.817L392.748 130.817C392.252 130.906 391.695 130.952 391.075 130.952C390.275 130.952 389.559 130.827 388.922 130.586C388.341 130.366 387.857 129.957 387.472 129.325C387.119 128.694 386.915 127.735 386.915 126.395V104.338H395.023H395.523V103.838V95.8836Z" fill="#121314" stroke="black"/>
<path d="M352.857 97.3856L352.905 97.8324H353.354H363.496H364.005L363.996 97.3238C363.938 93.9538 362.991 90.9573 361.15 88.3513C359.313 85.7336 356.788 83.7005 353.591 82.2474C350.408 80.7723 346.717 80.0427 342.531 80.0427C338.4 80.0427 334.683 80.7729 331.39 82.2448C328.099 83.697 325.479 85.7478 323.547 88.4018L323.547 88.4018L323.545 88.4038C321.623 91.0715 320.667 94.1776 320.667 97.7018C320.667 101.991 322.096 105.475 324.978 108.1L324.981 108.102C327.841 110.67 331.708 112.566 336.554 113.811C336.554 113.811 336.554 113.811 336.554 113.811L343.173 115.516L343.174 115.516C345.238 116.041 347.029 116.639 348.551 117.307L348.551 117.307L348.558 117.31C350.079 117.952 351.23 118.745 352.039 119.677L352.042 119.681C352.821 120.561 353.233 121.688 353.252 123.1C353.233 124.659 352.766 126.006 351.855 127.164C350.933 128.315 349.647 129.233 347.97 129.908C346.318 130.561 344.375 130.895 342.133 130.895C339.986 130.895 338.058 130.571 336.342 129.932C334.656 129.298 333.302 128.343 332.264 127.073C331.241 125.82 330.646 124.237 330.501 122.295L330.466 121.832H330.002H319.633H319.113L319.133 122.352C319.288 126.293 320.314 129.665 322.233 132.446L322.234 132.448C324.168 135.222 326.841 137.324 330.234 138.759L330.234 138.759C333.643 140.192 337.641 140.901 342.218 140.901C346.926 140.901 350.967 140.174 354.323 138.699L354.324 138.699C357.691 137.209 360.29 135.136 362.092 132.471L362.093 132.469C363.896 129.785 364.792 126.684 364.792 123.185C364.792 120.603 364.306 118.326 363.318 116.368C362.339 114.431 361.007 112.776 359.325 111.406C357.676 110.048 355.807 108.926 353.722 108.038C351.669 107.155 349.53 106.455 347.307 105.937L341.856 104.575L341.856 104.575L341.851 104.573C340.675 104.293 339.509 103.948 338.351 103.537C337.209 103.132 336.174 102.637 335.242 102.053C334.334 101.464 333.622 100.758 333.096 99.936C332.605 99.138 332.349 98.183 332.349 97.0516C332.367 95.6948 332.761 94.5005 333.53 93.452C334.3 92.4025 335.423 91.5533 336.929 90.9181C338.425 90.2875 340.24 89.9631 342.389 89.9631C345.442 89.9631 347.869 90.6382 349.713 91.9449L349.715 91.9462C351.562 93.2425 352.607 95.0419 352.857 97.3856Z" fill="#121314" stroke="black"/>
<path d="M251.192 105.269L251.192 105.27C249.56 108.689 248.756 112.858 248.756 117.759C248.756 122.603 249.551 126.752 251.162 130.187C252.767 133.611 254.965 136.245 257.762 138.064C260.557 139.881 263.721 140.787 267.239 140.787C269.791 140.787 271.949 140.362 273.687 139.483C275.382 138.626 276.764 137.584 277.818 136.351L277.821 136.347C278.658 135.352 279.341 134.393 279.864 133.472V139.52V140.02H280.364H290.478H290.978V139.52V81.3381V80.8381H290.478H280.166H279.666V81.3381V101.926C279.183 101.115 278.588 100.275 277.885 99.4056C276.868 98.1299 275.503 97.0569 273.806 96.1791C272.065 95.259 269.876 94.8154 267.268 94.8154C263.825 94.8154 260.693 95.7016 257.883 97.4772C255.064 99.2394 252.836 101.846 251.192 105.269ZM278.703 110.518L278.703 110.518L278.704 110.522C279.473 112.536 279.864 114.925 279.864 117.702C279.864 120.478 279.473 122.888 278.703 124.941C277.935 126.989 276.821 128.565 275.372 129.692C273.936 130.79 272.191 131.349 270.109 131.349C267.951 131.349 266.161 130.772 264.709 129.639C263.257 128.473 262.142 126.877 261.373 124.83C260.621 122.755 260.239 120.381 260.239 117.702C260.239 115.041 260.621 112.696 261.373 110.659C262.122 108.631 263.227 107.065 264.677 105.937C266.108 104.824 267.908 104.253 270.109 104.253C272.234 104.253 273.988 104.805 275.402 105.883L275.405 105.885C276.851 106.975 277.954 108.51 278.703 110.518Z" fill="#121314" stroke="black"/>
<path d="M220.624 139.52V140.02H221.124H231.408H231.908V139.52V113.867C231.908 112.09 232.315 110.543 233.116 109.209C233.921 107.867 235.019 106.821 236.418 106.068L236.42 106.067C237.836 105.296 239.438 104.906 241.238 104.906C242.084 104.906 242.96 104.971 243.866 105.1L243.866 105.1L243.877 105.102C244.818 105.214 245.464 105.342 245.846 105.475L246.511 105.706V105.003V95.5426V95.1327L246.109 95.0524C245.605 94.9516 244.984 94.8835 244.254 94.8448C243.546 94.7876 242.9 94.7585 242.317 94.7585C239.719 94.7585 237.392 95.4791 235.353 96.9242C233.699 98.0915 232.448 99.6584 231.596 101.609V95.8835V95.3835H231.096H221.124H220.624V95.8835V139.52Z" fill="#121314" stroke="black"/>
<path d="M180.064 139.378L180.069 139.38C182.357 140.397 184.918 140.901 187.744 140.901C190.061 140.901 192.101 140.582 193.855 139.932L193.858 139.931C195.612 139.268 197.082 138.394 198.255 137.3L198.255 137.3C199.104 136.509 199.819 135.671 200.397 134.788V139.52V140.02H200.897H210.783H211.283V139.52V110.315C211.283 107.36 210.743 104.857 209.632 102.832C208.553 100.833 207.116 99.2446 205.319 98.0788C203.545 96.9095 201.587 96.0727 199.45 95.5674C197.329 95.0662 195.198 94.8154 193.056 94.8154C189.958 94.8154 187.116 95.2772 184.536 96.2081C181.95 97.1221 179.753 98.5067 177.954 100.364C176.147 102.21 174.859 104.501 174.081 107.223L173.923 107.775L174.492 107.856L184.094 109.219L184.503 109.278L184.637 108.886C185.111 107.499 186.028 106.28 187.418 105.233C188.782 104.219 190.663 103.685 193.113 103.685C195.422 103.685 197.11 104.252 198.256 105.313C199.4 106.371 199.999 107.881 199.999 109.918V110.088C199.999 110.927 199.698 111.485 199.123 111.854C198.495 112.25 197.427 112.579 195.858 112.803C194.273 113.01 192.205 113.246 189.652 113.511L189.651 113.511C187.507 113.741 185.429 114.114 183.416 114.632C181.402 115.135 179.584 115.883 177.965 116.878C176.321 117.888 175.02 119.238 174.07 120.922C173.106 122.627 172.641 124.755 172.641 127.276C172.641 130.21 173.293 132.715 174.626 134.764L174.628 134.767C175.969 136.799 177.785 138.337 180.064 139.378ZM198.851 128.066L198.848 128.07C198.084 129.35 196.988 130.389 195.545 131.183C194.116 131.95 192.411 132.344 190.414 132.344C188.349 132.344 186.695 131.878 185.416 130.985C184.186 130.125 183.556 128.859 183.556 127.105C183.556 125.87 183.88 124.913 184.49 124.188L184.49 124.188L184.493 124.184C185.131 123.409 186.012 122.792 187.159 122.344C188.328 121.887 189.661 121.555 191.163 121.351L191.165 121.35C191.847 121.256 192.653 121.142 193.581 121.009C194.516 120.876 195.459 120.723 196.412 120.552C197.373 120.379 198.243 120.176 199.022 119.942C199.396 119.833 199.733 119.715 200.028 119.587V123.867C200.028 125.385 199.636 126.781 198.851 128.066Z" fill="#121314" stroke="black"/>
<path d="M116.758 139.656L116.861 140.02H117.239H127.978H128.358L128.46 139.654L136.458 110.826L144.456 139.654L144.558 140.02H144.938H155.648H156.026L156.13 139.656L168.487 96.0198L168.668 95.3835H168.006H157.495H157.104L157.01 95.7633L149.72 125.196L142.155 95.7591L142.059 95.3835H141.671H131.302H130.914L130.817 95.7597L123.265 125.312L115.878 95.7623L115.783 95.3835H115.393H104.91H104.249L104.429 96.0195L116.758 139.656Z" fill="#121314" stroke="black"/>
<path d="M61.0474 129.916L61.0484 129.918C62.8127 133.369 65.3006 136.063 68.5091 137.988C71.7241 139.917 75.5094 140.872 79.8459 140.872C84.1823 140.872 87.9676 139.917 91.1827 137.988C94.3912 136.063 96.8699 133.369 98.6153 129.917C100.381 126.464 101.255 122.444 101.255 117.872C101.255 113.301 100.381 109.272 98.6159 105.8C96.8707 102.329 94.392 99.6247 91.1827 97.6991C87.9676 95.7701 84.1823 94.8154 79.8459 94.8154C75.5094 94.8154 71.7241 95.7701 68.5091 97.6991C65.2999 99.6246 62.812 102.329 61.0479 105.799L61.0469 105.801C59.3013 109.273 58.4368 113.301 58.4368 117.872C58.4368 122.443 59.3013 126.463 61.0474 129.916ZM88.6935 124.89L88.6922 124.894C87.9608 126.979 86.8538 128.622 85.3802 129.844C83.9301 131.028 82.1157 131.634 79.9027 131.634C77.6304 131.634 75.7782 131.027 74.3103 129.843C72.8368 128.62 71.7205 126.977 70.9704 124.892C70.2346 122.795 69.8629 120.447 69.8629 117.844C69.8629 115.221 70.2348 112.864 70.9706 110.766C71.7213 108.661 72.8382 107.009 74.3116 105.786C75.7797 104.584 77.6314 103.969 79.9027 103.969C82.1146 103.969 83.9285 104.583 85.379 105.785C86.8522 107.007 87.9598 108.659 88.6918 110.764L88.6918 110.764L88.6935 110.769C89.4476 112.865 89.8288 115.222 89.8288 117.844C89.8288 120.446 89.4478 122.793 88.6935 124.89Z" fill="#121314" stroke="black"/>
<path d="M1.23511 139.52V140.02H1.73511H12.2749H12.7749V139.52V115.304H38.7351V139.52V140.02H39.2351H49.8033H50.3033V139.52V81.3381V80.8381H49.8033H39.2351H38.7351V81.3381V105.469H12.7749V81.3381V80.8381H12.2749H1.73511H1.23511V81.3381V139.52Z" fill="#121314" stroke="black"/>
<path d="M277.109 59.5199V60.0199H277.609H287.893H288.393V59.5199V32.9858C288.393 31.2541 288.739 29.766 289.413 28.5059L289.414 28.5033C290.096 27.2123 291.002 26.2312 292.13 25.5435L292.13 25.5435L292.135 25.5405C293.265 24.8343 294.517 24.4801 295.904 24.4801C297.97 24.4801 299.598 25.1136 300.835 26.3507L300.837 26.3532C302.089 27.5874 302.734 29.2494 302.734 31.3949V59.5199V60.0199H303.234H313.319H313.819V59.5199V32.304C313.819 29.9406 314.48 28.0698 315.764 26.6447C317.053 25.2163 318.848 24.4801 321.217 24.4801C323.189 24.4801 324.83 25.0774 326.17 26.2586L326.173 26.2611C327.463 27.3814 328.16 29.1946 328.16 31.821V59.5199V60.0199H328.66H338.972H339.472V59.5199V30.2301C339.472 25.2786 338.18 21.4298 335.519 18.7686C332.876 16.1255 329.466 14.8154 325.336 14.8154C322.094 14.8154 319.262 15.5637 316.859 17.0798C314.673 18.4534 313.059 20.2669 312.031 22.5146C311.14 20.2481 309.714 18.4269 307.754 17.0653C305.628 15.5562 303.032 14.8154 299.995 14.8154C296.995 14.8154 294.385 15.5471 292.188 17.0309C290.317 18.2787 288.9 19.9442 287.938 22.0154V15.8835V15.3835H287.438H277.609H277.109V15.8835V59.5199Z" fill="#121314" stroke="black"/>
<path d="M271.44 1.3381V0.838104H270.94H262.758H262.258V1.3381V7.19038C262.258 9.44424 261.879 11.4501 261.133 13.2164C260.368 15.0078 259.473 16.6757 258.449 18.221L258.17 18.6419L258.594 18.9166L263.366 22.0132L263.674 22.2127L263.956 21.9796C265.397 20.7922 266.678 19.3739 267.801 17.7279L267.803 17.7256C268.924 16.0633 269.805 14.3211 270.445 12.4994C271.105 10.6545 271.44 8.86494 271.44 7.13356V1.3381Z" fill="#121314" stroke="black"/>
<path d="M251.759 1.3381V0.838104H251.259H240.719H240.219V1.3381V59.5199V60.0199H240.719H251.259H251.759V59.5199V1.3381Z" fill="#121314" stroke="black"/>
<path d="M211.195 51.6241L211.261 51.0654H210.698H201.607H201.138L201.108 51.5342L200.909 54.716H200.909L200.909 54.7176C200.759 57.2557 200.468 59.7556 200.035 62.2175C199.601 64.6909 199.148 66.9157 198.678 68.8927L198.678 68.8927L198.677 68.8971C198.222 70.8857 197.862 72.4575 197.597 73.6126L197.457 74.2245H198.085H205.016H205.361L205.484 73.9025C205.94 72.704 206.538 71.0615 207.277 68.9768C208.021 66.8797 208.725 64.5854 209.391 62.0943C210.079 59.6096 210.557 57.1605 210.826 54.7473C210.826 54.7467 210.826 54.7462 210.826 54.7456L211.195 51.6241Z" fill="#121314" stroke="black"/>
<path d="M150.188 49.916L150.189 49.918C151.953 53.3691 154.441 56.0634 157.65 57.9884C160.865 59.9174 164.65 60.8722 168.986 60.8722C173.323 60.8722 177.108 59.9174 180.323 57.9884C183.532 56.0633 186.01 53.3688 187.756 49.9172C189.521 46.4635 190.396 42.4436 190.396 37.8722C190.396 33.3008 189.521 29.272 187.757 25.8C186.011 22.3294 183.533 19.6247 180.323 17.6991C177.108 15.7701 173.323 14.8154 168.986 14.8154C164.65 14.8154 160.865 15.7701 157.65 17.6991C154.441 19.6246 151.953 22.3289 150.189 25.799L150.188 25.801C148.442 29.2728 147.577 33.3012 147.577 37.8722C147.577 42.4431 148.442 46.4625 150.188 49.916ZM177.834 44.8905L177.833 44.8941C177.101 46.9788 175.994 48.6218 174.521 49.8442C173.071 51.0285 171.256 51.6335 169.043 51.6335C166.771 51.6335 164.919 51.0271 163.451 49.8433C161.977 48.6205 160.861 46.977 160.111 44.8923C159.375 42.7946 159.004 40.4469 159.004 37.8438C159.004 35.221 159.375 32.8637 160.111 30.7662C160.862 28.6613 161.979 27.0087 163.452 25.7864C164.92 24.5841 166.772 23.9688 169.043 23.9688C171.255 23.9688 173.069 24.5827 174.52 25.7855C175.993 27.0072 177.1 28.6592 177.832 30.7637L177.832 30.7637L177.834 30.7687C178.588 32.8654 178.969 35.2217 178.969 37.8438C178.969 40.4464 178.588 42.7934 177.834 44.8905Z" fill="#121314" stroke="black"/>
<path d="M139.877 1.3381V0.838104H139.377H129.093H128.593V1.3381V59.5199V60.0199H129.093H139.377H139.877V59.5199V1.3381Z" fill="#121314" stroke="black"/>
<path d="M119.018 1.3381V0.838104H118.518H108.234H107.734V1.3381V59.5199V60.0199H108.234H118.518H119.018V59.5199V1.3381Z" fill="#121314" stroke="black"/>
<path d="M68.5436 58.0773L68.5466 58.079C71.8174 59.9481 75.6848 60.8722 80.1299 60.8722C83.5699 60.8722 86.6445 60.3533 89.3451 59.3042L89.348 59.303C92.0435 58.2364 94.2698 56.7366 96.0131 54.7974C97.7748 52.8399 98.9686 50.5485 99.5935 47.9315L99.7249 47.3817L99.1631 47.3185L89.5608 46.239L89.1716 46.1952L89.0359 46.5626C88.6062 47.7264 87.9753 48.6912 87.1462 49.4674C86.3093 50.2508 85.3189 50.8503 84.1686 51.2641C83.0175 51.6593 81.7206 51.8608 80.272 51.8608C78.1102 51.8608 76.2481 51.4036 74.6688 50.5068C73.0902 49.5916 71.8589 48.2823 70.9726 46.5646C70.1798 45.011 69.7338 43.1651 69.6501 41.0142H99.5334H100.033V40.5142V37.3608C100.033 33.4909 99.4972 30.1317 98.4093 27.2954C97.3268 24.4543 95.8317 22.0983 93.9164 20.2413C92.0285 18.3926 89.8461 17.0283 87.373 16.1517C84.9292 15.2598 82.3338 14.8154 79.5902 14.8154C75.3449 14.8154 71.6242 15.7907 68.4471 17.7591C65.277 19.7041 62.8101 22.4269 61.0474 25.9136L61.0469 25.9146C59.3014 29.3861 58.4368 33.405 58.4368 37.9574C58.4368 42.5841 59.3008 46.6322 61.0474 50.0864L61.0479 50.0874C62.7948 53.5231 65.2949 56.1903 68.5436 58.0773ZM89.1611 33.0824H69.698C69.8453 31.6448 70.2505 30.3104 70.9113 29.0747C71.7604 27.5034 72.941 26.2416 74.4593 25.2837L74.4593 25.2837L74.4628 25.2814C75.9643 24.3162 77.7148 23.8267 79.7322 23.8267C81.6242 23.8267 83.2558 24.2534 84.6446 25.0902L84.647 25.0917C86.0642 25.9348 87.1655 27.0891 87.9564 28.5631L87.9576 28.5654C88.6764 29.8886 89.0807 31.3912 89.1611 33.0824Z" fill="#121314" stroke="black"/>
<path d="M1.23511 59.5199V60.0199H1.73511H12.2749H12.7749V59.5199V35.304H38.7351V59.5199V60.0199H39.2351H49.8033H50.3033V59.5199V1.3381V0.838104H49.8033H39.2351H38.7351V1.3381V25.4688H12.7749V1.3381V0.838104H12.2749H1.73511H1.23511V1.3381V59.5199Z" fill="#121314" stroke="black"/>
</svg>
