<svg width="40" height="40" viewBox="0 0 40 40" fill="none" xmlns="http://www.w3.org/2000/svg">
<path d="M24.1667 2.5C22.3231 2.5 20.8333 3.98976 20.8333 5.83333V14.1667C20.8333 16.0102 22.3231 17.5 24.1667 17.5C26.0102 17.5 27.5 16.0102 27.5 14.1667V5.83333C27.5 3.98976 26.0102 2.5 24.1667 2.5Z" fill="#EBB22D"/>
<path d="M34.1667 10.8333C32.3231 10.8333 30.8333 12.3231 30.8333 14.1667V16.6667C30.8333 17.1269 31.2064 17.5 31.6667 17.5H34.1667C36.0102 17.5 37.5 16.0102 37.5 14.1667C37.5 12.3231 36.0102 10.8333 34.1667 10.8333Z" fill="#EBB22D"/>
<path d="M15.8333 22.5C13.9898 22.5 12.5 23.9898 12.5 25.8333V34.1667C12.5 36.0102 13.9898 37.5 15.8333 37.5C17.6769 37.5 19.1667 36.0102 19.1667 34.1667V25.8333C19.1667 23.9898 17.6769 22.5 15.8333 22.5Z" fill="#EBB22D"/>
<path d="M5.83333 22.5C3.98976 22.5 2.5 23.9898 2.5 25.8333C2.5 27.6769 3.98976 29.1667 5.83333 29.1667C7.6769 29.1667 9.16667 27.6769 9.16667 25.8333V23.3333C9.16667 22.8731 8.79357 22.5 8.33333 22.5H5.83333Z" fill="#EBB22D"/>
<path d="M25.8333 20.8333C23.9898 20.8333 22.5 22.3231 22.5 24.1667C22.5 26.0102 23.9898 27.5 25.8333 27.5H34.1667C36.0102 27.5 37.5 26.0102 37.5 24.1667C37.5 22.3231 36.0102 20.8333 34.1667 20.8333H25.8333Z" fill="#EBB22D"/>
<path d="M23.3333 30.8333C22.8731 30.8333 22.5 31.2064 22.5 31.6667V34.1667C22.5 36.0102 23.9898 37.5 25.8333 37.5C27.6769 37.5 29.1667 36.0102 29.1667 34.1667C29.1667 32.3231 27.6769 30.8333 25.8333 30.8333H23.3333Z" fill="#EBB22D"/>
<path d="M5.83333 12.5C3.98976 12.5 2.5 13.9898 2.5 15.8333C2.5 17.6769 3.98976 19.1667 5.83333 19.1667H14.1667C16.0102 19.1667 17.5 17.6769 17.5 15.8333C17.5 13.9898 16.0102 12.5 14.1667 12.5H5.83333Z" fill="#EBB22D"/>
<path d="M14.1667 2.5C12.3231 2.5 10.8333 3.98976 10.8333 5.83333C10.8333 7.6769 12.3231 9.16667 14.1667 9.16667H16.6667C17.1269 9.16667 17.5 8.79357 17.5 8.33333V5.83333C17.5 3.98976 16.0102 2.5 14.1667 2.5Z" fill="#EBB22D"/>
<path d="M15.8333 22.5C13.9898 22.5 12.5 23.9898 12.5 25.8333V34.1667C12.5 36.0102 13.9898 37.5 15.8333 37.5C17.6769 37.5 19.1667 36.0102 19.1667 34.1667V25.8333C19.1667 23.9898 17.6769 22.5 15.8333 22.5Z" fill="#DF1D5A"/>
<path d="M5.83333 22.5C3.98976 22.5 2.5 23.9898 2.5 25.8333C2.5 27.6769 3.98976 29.1667 5.83333 29.1667C7.6769 29.1667 9.16667 27.6769 9.16667 25.8333V23.3333C9.16667 22.8731 8.79357 22.5 8.33333 22.5H5.83333Z" fill="#DF1D5A"/>
<path d="M5.83333 12.5C3.98976 12.5 2.5 13.9898 2.5 15.8333C2.5 17.6769 3.98976 19.1667 5.83333 19.1667H14.1667C16.0102 19.1667 17.5 17.6769 17.5 15.8333C17.5 13.9898 16.0102 12.5 14.1667 12.5H5.83333Z" fill="#DF1D5A"/>
<path d="M14.1667 2.5C12.3231 2.5 10.8333 3.98976 10.8333 5.83333C10.8333 7.6769 12.3231 9.16667 14.1667 9.16667H16.6667C17.1269 9.16667 17.5 8.79357 17.5 8.33333V5.83333C17.5 3.98976 16.0102 2.5 14.1667 2.5Z" fill="#DF1D5A"/>
<path d="M24.1667 2.5C22.3231 2.5 20.8333 3.98976 20.8333 5.83333V14.1667C20.8333 16.0102 22.3231 17.5 24.1667 17.5C26.0102 17.5 27.5 16.0102 27.5 14.1667V5.83333C27.5 3.98976 26.0102 2.5 24.1667 2.5Z" fill="#36C5F1"/>
<path d="M34.1667 10.8333C32.3231 10.8333 30.8333 12.3231 30.8333 14.1667V16.6667C30.8333 17.1269 31.2064 17.5 31.6667 17.5H34.1667C36.0102 17.5 37.5 16.0102 37.5 14.1667C37.5 12.3231 36.0102 10.8333 34.1667 10.8333Z" fill="#36C5F1"/>
<path d="M5.83333 12.5C3.98976 12.5 2.5 13.9898 2.5 15.8333C2.5 17.6769 3.98976 19.1667 5.83333 19.1667H14.1667C16.0102 19.1667 17.5 17.6769 17.5 15.8333C17.5 13.9898 16.0102 12.5 14.1667 12.5H5.83333Z" fill="#36C5F1"/>
<path d="M14.1667 2.5C12.3231 2.5 10.8333 3.98976 10.8333 5.83333C10.8333 7.6769 12.3231 9.16667 14.1667 9.16667H16.6667C17.1269 9.16667 17.5 8.79357 17.5 8.33333V5.83333C17.5 3.98976 16.0102 2.5 14.1667 2.5Z" fill="#36C5F1"/>
<path d="M24.1667 2.5C22.3231 2.5 20.8334 3.98976 20.8334 5.83333V14.1667C20.8334 16.0102 22.3231 17.5 24.1667 17.5C26.0103 17.5 27.5 16.0102 27.5 14.1667V5.83333C27.5 3.98976 26.0103 2.5 24.1667 2.5Z" fill="#2DB67E"/>
<path d="M34.1667 10.8333C32.3231 10.8333 30.8334 12.3231 30.8334 14.1667V16.6667C30.8334 17.1269 31.2065 17.5 31.6667 17.5H34.1667C36.0103 17.5 37.5 16.0102 37.5 14.1667C37.5 12.3231 36.0103 10.8333 34.1667 10.8333Z" fill="#2DB67E"/>
</svg>
