<svg width="164" height="48" viewBox="0 0 164 48" fill="none" xmlns="http://www.w3.org/2000/svg">
<g clip-path="url(#clip0_3025_8657)">
<path d="M45.5503 14.0131H53.1724C58.0318 14.0131 62.046 16.8247 62.046 23.2442V24.5931C62.046 31.0613 58.2918 33.9704 53.3187 33.9704H45.5503V14.0131ZM49.8083 17.6373V30.33H53.0749C55.8377 30.33 57.6905 28.526 57.6905 24.5118V23.4555C57.6905 19.4412 55.7402 17.6373 52.9287 17.6373H49.8083ZM64.305 17.8323H67.7179L68.2705 21.5865C68.9205 19.0349 70.5782 17.6698 73.5848 17.6698H74.6412V21.9765H72.886C69.4243 21.9765 68.5792 23.1792 68.5792 26.5921V34.0192H64.37V17.8323H64.305ZM75.4863 26.2508V25.7957C75.4863 20.3838 78.948 17.426 83.661 17.426C88.4716 17.426 91.8357 20.3838 91.8357 25.7957V26.2508C91.8357 31.5652 88.5691 34.4255 83.661 34.4255C78.4441 34.3767 75.4863 31.5814 75.4863 26.2508ZM87.529 26.202V25.7957C87.529 22.7891 86.0175 20.9852 83.6123 20.9852C81.2557 20.9852 79.6955 22.6429 79.6955 25.7957V26.202C79.6955 29.1111 81.207 30.7688 83.6123 30.7688C86.0175 30.7201 87.529 29.1111 87.529 26.202ZM94.046 17.8323H97.5564L97.9627 20.8877C98.8078 18.8399 100.612 17.426 103.277 17.426C107.389 17.426 110.103 20.3838 110.103 25.8607V26.3158C110.103 31.6302 107.096 34.4417 103.277 34.4417C100.726 34.4417 98.9703 33.2879 98.1089 31.4351V39.6098H93.9972L94.046 17.8323ZM105.829 26.202V25.8445C105.829 22.6266 104.171 21.0339 101.961 21.0339C99.6041 21.0339 98.0439 22.8379 98.0439 25.8445V26.1533C98.0439 29.0136 99.5554 30.8176 101.912 30.8176C104.333 30.7688 105.829 29.2249 105.829 26.202ZM116.327 31.0288L115.97 33.9867H112.362V12.4204H116.474V20.6926C117.384 18.5799 119.188 17.426 121.739 17.426C125.607 17.4748 128.468 20.1401 128.468 25.5032V26.007C128.468 31.3701 125.753 34.4417 121.642 34.4417C118.928 34.3767 117.172 33.1253 116.327 31.0288ZM124.145 26.007V25.6007C124.145 22.6429 122.536 20.9852 120.277 20.9852C117.969 20.9852 116.36 22.8379 116.36 25.6495V26.007C116.36 29.0136 117.92 30.7688 120.228 30.7688C122.698 30.7688 124.145 29.2249 124.145 26.007ZM130.271 26.2508V25.7957C130.271 20.3838 133.733 17.426 138.446 17.426C143.257 17.426 146.621 20.3838 146.621 25.7957V26.2508C146.621 31.5652 143.306 34.4255 138.446 34.4255C133.229 34.3767 130.271 31.5814 130.271 26.2508ZM142.347 26.202V25.7957C142.347 22.7891 140.835 20.9852 138.43 20.9852C136.073 20.9852 134.513 22.6429 134.513 25.7957V26.202C134.513 29.1111 136.025 30.7688 138.43 30.7688C140.851 30.7201 142.347 29.1111 142.347 26.202ZM152.13 25.6007L146.458 17.8323H151.318L154.584 22.6916L157.9 17.8323H162.71L156.957 25.5519L163.019 33.9867H158.257L154.552 28.6236L150.944 33.9867H145.971L152.13 25.6007Z" fill="black"/>
<path d="M19.3522 14.0132L9.92611 20.0264L19.3522 26.0396L9.92611 32.0528L0.5 26.0071L9.92611 19.9939L0.5 14.0132L9.92611 8L19.3522 14.0132ZM9.87735 33.9868L19.3035 27.9736L28.7296 33.9868L19.3035 40L9.87735 33.9868ZM19.3522 26.0071L28.7783 19.9939L19.3522 14.0132L28.7296 8L38.1557 14.0132L28.7296 20.0264L38.1557 26.0396L28.7296 32.0528L19.3522 26.0071Z" fill="#0061FF"/>
</g>
<defs>
<clipPath id="clip0_3025_8657">
<rect width="163" height="48" fill="white" transform="translate(0.5)"/>
</clipPath>
</defs>
</svg>
