<svg width="200" height="96" viewBox="0 0 200 96" fill="none" xmlns="http://www.w3.org/2000/svg">
<path fill-rule="evenodd" clip-rule="evenodd" d="M130.707 44.5972C131.081 45.2429 131.204 45.9774 131.244 46.8032L131.297 47.9039V55.6007L131.352 56.7025C131.46 58.502 132.787 59.8325 134.601 59.9457L135.697 60V47.9039L135.751 46.8032C135.796 45.9867 135.917 45.2382 136.297 44.588C136.685 43.921 137.24 43.3677 137.909 42.9835C138.578 42.5993 139.336 42.3978 140.107 42.3992C140.878 42.4006 141.635 42.6049 142.303 42.9915C142.97 43.3781 143.524 43.9335 143.909 44.6018C144.283 45.2475 144.4 45.9959 144.445 46.8032L144.499 47.9005V55.6007L144.553 56.7025C144.666 58.5112 145.983 59.8418 147.802 59.9457L148.898 60V46.8032C148.898 44.4697 147.971 42.2317 146.322 40.5813C144.672 38.9309 142.434 38.0032 140.101 38.0023C138.852 38.001 137.617 38.2662 136.479 38.7803C135.34 39.2944 134.325 40.0454 133.5 40.9833C132.675 40.0458 131.659 39.2949 130.521 38.7807C129.383 38.2665 128.148 38.0007 126.899 38.0012C125.072 38.0012 123.377 38.5555 121.972 39.513C121.115 38.5567 119.198 38.0012 118.097 38.0012V60L119.198 59.9457C121.039 59.8244 122.369 58.5297 122.441 56.7025L122.5 55.6007V47.9039L122.554 46.8032C122.6 45.9728 122.716 45.2429 123.091 44.5926C123.479 43.9261 124.034 43.3728 124.703 42.9882C125.371 42.6035 126.128 42.4009 126.899 42.4005C127.671 42.4006 128.429 42.6037 129.097 42.9893C129.766 43.3748 130.321 43.9294 130.707 44.5972ZM55.3993 59.9469L56.5 60H72.9988L72.9446 58.9028C72.7956 57.0941 71.5147 55.7728 69.7002 55.655L68.5995 55.6007H58.7014L71.8982 42.3993L71.8439 41.3032C71.7584 39.4761 70.4232 38.1559 68.5995 38.0554L67.4988 38.0058L51 38.0012L51.0543 39.1019C51.1987 40.8932 52.498 42.2422 54.2975 42.3462L55.3993 42.4005H65.2975L52.1007 55.6018L52.155 56.7025C52.2635 58.5159 53.5721 59.8291 55.3993 59.9457V59.9469ZM113.779 41.2212C114.8 42.2426 115.611 43.4552 116.164 44.7898C116.717 46.1244 117.001 47.5548 117.001 48.9994C117.001 50.444 116.717 51.8744 116.164 53.209C115.611 54.5436 114.8 55.7562 113.779 56.7776C111.715 58.8399 108.917 59.9983 105.999 59.9983C103.081 59.9983 100.283 58.8399 98.2189 56.7776C93.9236 52.4823 93.9236 45.5166 98.2189 41.2212C99.2396 40.2002 100.451 39.3902 101.785 38.8375C103.119 38.2848 104.548 38.0002 105.992 38C107.438 37.999 108.87 38.2831 110.206 38.836C111.542 39.3889 112.756 40.1999 113.779 41.2224V41.2212ZM110.666 44.3362C111.903 45.5744 112.598 47.2531 112.598 49.0035C112.598 50.7538 111.903 52.4326 110.666 53.6707C109.428 54.908 107.749 55.6029 105.999 55.6029C104.248 55.6029 102.57 54.908 101.332 53.6707C100.094 52.4326 99.3994 50.7538 99.3994 49.0035C99.3994 47.2531 100.094 45.5744 101.332 44.3362C102.57 43.099 104.248 42.404 105.999 42.404C107.749 42.404 109.428 43.099 110.666 44.3362ZM82.9062 38C84.35 38.0004 85.7795 38.2851 87.1133 38.8381C88.4469 39.391 89.6587 40.2012 90.6792 41.2224C94.9757 45.5166 94.9757 52.4834 90.6792 56.7776C88.6153 58.8399 85.817 59.9983 82.8993 59.9983C79.9816 59.9983 77.1833 58.8399 75.1194 56.7776C70.824 52.4823 70.824 45.5166 75.1194 41.2212C76.14 40.2002 77.3518 39.3902 78.6855 38.8375C80.0192 38.2848 81.4487 38.0002 82.8924 38H82.9062ZM87.5666 44.3339C88.8041 45.5721 89.4994 47.2511 89.4994 49.0017C89.4994 50.7524 88.8041 52.4314 87.5666 53.6696C86.3284 54.9068 84.6497 55.6018 82.8993 55.6018C81.1489 55.6018 79.4702 54.9068 78.232 53.6696C76.9948 52.4314 76.2998 50.7527 76.2998 49.0023C76.2998 47.252 76.9948 45.5732 78.232 44.335C79.4702 43.0978 81.1489 42.4028 82.8993 42.4028C84.6497 42.4028 86.3284 43.0978 87.5666 44.335V44.3339Z" fill="#2D8CFF"/>
</svg>
