<svg width="95" height="27" viewBox="0 0 95 27" fill="none" xmlns="http://www.w3.org/2000/svg">
<g filter="url(#filter0_d_3025_8669)">
<mask id="path-1-outside-1_3025_8669" maskUnits="userSpaceOnUse" x="3" y="-1" width="89" height="21" fill="black">
<rect fill="white" x="3" y="-1" width="89" height="21"/>
<path d="M4.19815 18V0.545454H7.36009V7.93466H15.4482V0.545454H18.6186V18H15.4482V10.5852H7.36009V18H4.19815ZM27.6314 18.2557C26.353 18.2557 25.245 17.9744 24.3075 17.4119C23.37 16.8494 22.6428 16.0625 22.1257 15.0511C21.6143 14.0398 21.3587 12.858 21.3587 11.5057C21.3587 10.1534 21.6143 8.96875 22.1257 7.9517C22.6428 6.93466 23.37 6.14489 24.3075 5.58239C25.245 5.01989 26.353 4.73864 27.6314 4.73864C28.9098 4.73864 30.0178 5.01989 30.9553 5.58239C31.8928 6.14489 32.6172 6.93466 33.1286 7.9517C33.6456 8.96875 33.9041 10.1534 33.9041 11.5057C33.9041 12.858 33.6456 14.0398 33.1286 15.0511C32.6172 16.0625 31.8928 16.8494 30.9553 17.4119C30.0178 17.9744 28.9098 18.2557 27.6314 18.2557ZM27.6484 15.7841C28.3416 15.7841 28.9212 15.5937 29.3871 15.2131C29.853 14.8267 30.1996 14.3097 30.4268 13.6619C30.6598 13.0142 30.7763 12.2926 30.7763 11.4972C30.7763 10.696 30.6598 9.97159 30.4268 9.32386C30.1996 8.67045 29.853 8.15057 29.3871 7.7642C28.9212 7.37784 28.3416 7.18466 27.6484 7.18466C26.9382 7.18466 26.3473 7.37784 25.8757 7.7642C25.4098 8.15057 25.0604 8.67045 24.8274 9.32386C24.6001 9.97159 24.4865 10.696 24.4865 11.4972C24.4865 12.2926 24.6001 13.0142 24.8274 13.6619C25.0604 14.3097 25.4098 14.8267 25.8757 15.2131C26.3473 15.5937 26.9382 15.7841 27.6484 15.7841ZM38.8494 18L35.1506 4.90909H38.2955L40.5966 14.1136H40.7159L43.0682 4.90909H46.179L48.5312 14.0625H48.6591L50.9261 4.90909H54.0795L50.3722 18H47.1591L44.7045 9.15341H44.5256L42.071 18H38.8494ZM60.0007 18.2642C59.1712 18.2642 58.424 18.1165 57.7592 17.821C57.1001 17.5199 56.5774 17.0767 56.1911 16.4915C55.8104 15.9062 55.62 15.1847 55.62 14.3267C55.62 13.5881 55.7564 12.9773 56.0291 12.4943C56.3018 12.0114 56.674 11.625 57.1456 11.3352C57.6172 11.0455 58.1484 10.8267 58.7393 10.679C59.3359 10.5256 59.9524 10.4148 60.5888 10.3466C61.3558 10.267 61.978 10.196 62.4553 10.1335C62.9325 10.0653 63.2791 9.96307 63.495 9.8267C63.7166 9.68466 63.8274 9.46591 63.8274 9.17045V9.11932C63.8274 8.47727 63.6371 7.98011 63.2564 7.62784C62.8757 7.27557 62.3274 7.09943 61.6115 7.09943C60.8558 7.09943 60.2564 7.2642 59.8132 7.59375C59.3757 7.9233 59.0803 8.3125 58.9268 8.76136L56.0462 8.35227C56.2734 7.55682 56.6484 6.89205 57.1712 6.35795C57.6939 5.81818 58.3331 5.41477 59.0888 5.14773C59.8445 4.875 60.6797 4.73864 61.5945 4.73864C62.2251 4.73864 62.853 4.8125 63.478 4.96023C64.103 5.10795 64.674 5.35227 65.1911 5.69318C65.7081 6.02841 66.1229 6.4858 66.4354 7.06534C66.7536 7.64489 66.9126 8.36932 66.9126 9.23864V18H63.9467V16.2017H63.8445C63.657 16.5653 63.3928 16.9062 63.0518 17.2244C62.7166 17.5369 62.2933 17.7898 61.782 17.983C61.2763 18.1705 60.6825 18.2642 60.0007 18.2642ZM60.8018 15.9972C61.4212 15.9972 61.9581 15.875 62.4126 15.6307C62.8672 15.3807 63.2166 15.0511 63.4609 14.642C63.7109 14.233 63.8359 13.7869 63.8359 13.304V11.7614C63.7393 11.8409 63.5746 11.9148 63.3416 11.983C63.1143 12.0511 62.8587 12.1108 62.5746 12.1619C62.2905 12.2131 62.0092 12.2585 61.7308 12.2983C61.4524 12.3381 61.2109 12.3722 61.0064 12.4006C60.5462 12.4631 60.1342 12.5653 59.7706 12.7074C59.407 12.8494 59.12 13.0483 58.9098 13.304C58.6996 13.554 58.5945 13.8778 58.5945 14.2756C58.5945 14.8438 58.8018 15.2727 59.2166 15.5625C59.6314 15.8523 60.1598 15.9972 60.8018 15.9972ZM70.0149 18V4.90909H73.0064V7.09091H73.1428C73.3814 6.33523 73.7905 5.75284 74.37 5.34375C74.9553 4.92898 75.6229 4.72159 76.3729 4.72159C76.5433 4.72159 76.7337 4.73011 76.9439 4.74716C77.1598 4.75852 77.3388 4.77841 77.4808 4.80682V7.64489C77.3501 7.59943 77.1428 7.55966 76.8587 7.52557C76.5803 7.4858 76.3104 7.46591 76.049 7.46591C75.4865 7.46591 74.9808 7.58807 74.532 7.83239C74.0888 8.07102 73.7393 8.40341 73.4837 8.82955C73.228 9.25568 73.1001 9.74716 73.1001 10.304V18H70.0149ZM83.8494 18.2301C82.821 18.2301 81.9006 17.9659 81.0881 17.4375C80.2756 16.9091 79.6335 16.142 79.1619 15.1364C78.6903 14.1307 78.4545 12.9091 78.4545 11.4716C78.4545 10.017 78.6932 8.78977 79.1705 7.78977C79.6534 6.78409 80.304 6.02557 81.1222 5.5142C81.9403 4.99716 82.8523 4.73864 83.858 4.73864C84.625 4.73864 85.2557 4.86932 85.75 5.13068C86.2443 5.38636 86.6364 5.69602 86.9261 6.05966C87.2159 6.41761 87.4403 6.75568 87.5994 7.07386H87.7273V0.545454H90.821V18H87.7869V15.9375H87.5994C87.4403 16.2557 87.2102 16.5937 86.9091 16.9517C86.608 17.304 86.2102 17.6051 85.7159 17.8551C85.2216 18.1051 84.5994 18.2301 83.8494 18.2301ZM84.7102 15.6989C85.3636 15.6989 85.9205 15.5227 86.3807 15.1705C86.8409 14.8125 87.1903 14.3153 87.429 13.679C87.6676 13.0426 87.7869 12.3011 87.7869 11.4545C87.7869 10.608 87.6676 9.87216 87.429 9.24716C87.196 8.62216 86.8494 8.13636 86.3892 7.78977C85.9347 7.44318 85.375 7.26989 84.7102 7.26989C84.0227 7.26989 83.4489 7.44886 82.9886 7.80682C82.5284 8.16477 82.1818 8.65909 81.9489 9.28977C81.7159 9.92045 81.5994 10.642 81.5994 11.4545C81.5994 12.2727 81.7159 13.0028 81.9489 13.6449C82.1875 14.2812 82.5369 14.7841 82.9972 15.1534C83.4631 15.517 84.0341 15.6989 84.7102 15.6989Z"/>
</mask>
<path d="M4.19815 18V0.545454H7.36009V7.93466H15.4482V0.545454H18.6186V18H15.4482V10.5852H7.36009V18H4.19815ZM27.6314 18.2557C26.353 18.2557 25.245 17.9744 24.3075 17.4119C23.37 16.8494 22.6428 16.0625 22.1257 15.0511C21.6143 14.0398 21.3587 12.858 21.3587 11.5057C21.3587 10.1534 21.6143 8.96875 22.1257 7.9517C22.6428 6.93466 23.37 6.14489 24.3075 5.58239C25.245 5.01989 26.353 4.73864 27.6314 4.73864C28.9098 4.73864 30.0178 5.01989 30.9553 5.58239C31.8928 6.14489 32.6172 6.93466 33.1286 7.9517C33.6456 8.96875 33.9041 10.1534 33.9041 11.5057C33.9041 12.858 33.6456 14.0398 33.1286 15.0511C32.6172 16.0625 31.8928 16.8494 30.9553 17.4119C30.0178 17.9744 28.9098 18.2557 27.6314 18.2557ZM27.6484 15.7841C28.3416 15.7841 28.9212 15.5937 29.3871 15.2131C29.853 14.8267 30.1996 14.3097 30.4268 13.6619C30.6598 13.0142 30.7763 12.2926 30.7763 11.4972C30.7763 10.696 30.6598 9.97159 30.4268 9.32386C30.1996 8.67045 29.853 8.15057 29.3871 7.7642C28.9212 7.37784 28.3416 7.18466 27.6484 7.18466C26.9382 7.18466 26.3473 7.37784 25.8757 7.7642C25.4098 8.15057 25.0604 8.67045 24.8274 9.32386C24.6001 9.97159 24.4865 10.696 24.4865 11.4972C24.4865 12.2926 24.6001 13.0142 24.8274 13.6619C25.0604 14.3097 25.4098 14.8267 25.8757 15.2131C26.3473 15.5937 26.9382 15.7841 27.6484 15.7841ZM38.8494 18L35.1506 4.90909H38.2955L40.5966 14.1136H40.7159L43.0682 4.90909H46.179L48.5312 14.0625H48.6591L50.9261 4.90909H54.0795L50.3722 18H47.1591L44.7045 9.15341H44.5256L42.071 18H38.8494ZM60.0007 18.2642C59.1712 18.2642 58.424 18.1165 57.7592 17.821C57.1001 17.5199 56.5774 17.0767 56.1911 16.4915C55.8104 15.9062 55.62 15.1847 55.62 14.3267C55.62 13.5881 55.7564 12.9773 56.0291 12.4943C56.3018 12.0114 56.674 11.625 57.1456 11.3352C57.6172 11.0455 58.1484 10.8267 58.7393 10.679C59.3359 10.5256 59.9524 10.4148 60.5888 10.3466C61.3558 10.267 61.978 10.196 62.4553 10.1335C62.9325 10.0653 63.2791 9.96307 63.495 9.8267C63.7166 9.68466 63.8274 9.46591 63.8274 9.17045V9.11932C63.8274 8.47727 63.6371 7.98011 63.2564 7.62784C62.8757 7.27557 62.3274 7.09943 61.6115 7.09943C60.8558 7.09943 60.2564 7.2642 59.8132 7.59375C59.3757 7.9233 59.0803 8.3125 58.9268 8.76136L56.0462 8.35227C56.2734 7.55682 56.6484 6.89205 57.1712 6.35795C57.6939 5.81818 58.3331 5.41477 59.0888 5.14773C59.8445 4.875 60.6797 4.73864 61.5945 4.73864C62.2251 4.73864 62.853 4.8125 63.478 4.96023C64.103 5.10795 64.674 5.35227 65.1911 5.69318C65.7081 6.02841 66.1229 6.4858 66.4354 7.06534C66.7536 7.64489 66.9126 8.36932 66.9126 9.23864V18H63.9467V16.2017H63.8445C63.657 16.5653 63.3928 16.9062 63.0518 17.2244C62.7166 17.5369 62.2933 17.7898 61.782 17.983C61.2763 18.1705 60.6825 18.2642 60.0007 18.2642ZM60.8018 15.9972C61.4212 15.9972 61.9581 15.875 62.4126 15.6307C62.8672 15.3807 63.2166 15.0511 63.4609 14.642C63.7109 14.233 63.8359 13.7869 63.8359 13.304V11.7614C63.7393 11.8409 63.5746 11.9148 63.3416 11.983C63.1143 12.0511 62.8587 12.1108 62.5746 12.1619C62.2905 12.2131 62.0092 12.2585 61.7308 12.2983C61.4524 12.3381 61.2109 12.3722 61.0064 12.4006C60.5462 12.4631 60.1342 12.5653 59.7706 12.7074C59.407 12.8494 59.12 13.0483 58.9098 13.304C58.6996 13.554 58.5945 13.8778 58.5945 14.2756C58.5945 14.8438 58.8018 15.2727 59.2166 15.5625C59.6314 15.8523 60.1598 15.9972 60.8018 15.9972ZM70.0149 18V4.90909H73.0064V7.09091H73.1428C73.3814 6.33523 73.7905 5.75284 74.37 5.34375C74.9553 4.92898 75.6229 4.72159 76.3729 4.72159C76.5433 4.72159 76.7337 4.73011 76.9439 4.74716C77.1598 4.75852 77.3388 4.77841 77.4808 4.80682V7.64489C77.3501 7.59943 77.1428 7.55966 76.8587 7.52557C76.5803 7.4858 76.3104 7.46591 76.049 7.46591C75.4865 7.46591 74.9808 7.58807 74.532 7.83239C74.0888 8.07102 73.7393 8.40341 73.4837 8.82955C73.228 9.25568 73.1001 9.74716 73.1001 10.304V18H70.0149ZM83.8494 18.2301C82.821 18.2301 81.9006 17.9659 81.0881 17.4375C80.2756 16.9091 79.6335 16.142 79.1619 15.1364C78.6903 14.1307 78.4545 12.9091 78.4545 11.4716C78.4545 10.017 78.6932 8.78977 79.1705 7.78977C79.6534 6.78409 80.304 6.02557 81.1222 5.5142C81.9403 4.99716 82.8523 4.73864 83.858 4.73864C84.625 4.73864 85.2557 4.86932 85.75 5.13068C86.2443 5.38636 86.6364 5.69602 86.9261 6.05966C87.2159 6.41761 87.4403 6.75568 87.5994 7.07386H87.7273V0.545454H90.821V18H87.7869V15.9375H87.5994C87.4403 16.2557 87.2102 16.5937 86.9091 16.9517C86.608 17.304 86.2102 17.6051 85.7159 17.8551C85.2216 18.1051 84.5994 18.2301 83.8494 18.2301ZM84.7102 15.6989C85.3636 15.6989 85.9205 15.5227 86.3807 15.1705C86.8409 14.8125 87.1903 14.3153 87.429 13.679C87.6676 13.0426 87.7869 12.3011 87.7869 11.4545C87.7869 10.608 87.6676 9.87216 87.429 9.24716C87.196 8.62216 86.8494 8.13636 86.3892 7.78977C85.9347 7.44318 85.375 7.26989 84.7102 7.26989C84.0227 7.26989 83.4489 7.44886 82.9886 7.80682C82.5284 8.16477 82.1818 8.65909 81.9489 9.28977C81.7159 9.92045 81.5994 10.642 81.5994 11.4545C81.5994 12.2727 81.7159 13.0028 81.9489 13.6449C82.1875 14.2812 82.5369 14.7841 82.9972 15.1534C83.4631 15.517 84.0341 15.6989 84.7102 15.6989Z" fill="#121314"/>
<path d="M4.19815 18H3.19815V19H4.19815V18ZM4.19815 0.545454V-0.454546H3.19815V0.545454H4.19815ZM7.36009 0.545454H8.36009V-0.454546H7.36009V0.545454ZM7.36009 7.93466H6.36009V8.93466H7.36009V7.93466ZM15.4482 7.93466V8.93466H16.4482V7.93466H15.4482ZM15.4482 0.545454V-0.454546H14.4482V0.545454H15.4482ZM18.6186 0.545454H19.6186V-0.454546H18.6186V0.545454ZM18.6186 18V19H19.6186V18H18.6186ZM15.4482 18H14.4482V19H15.4482V18ZM15.4482 10.5852H16.4482V9.58523H15.4482V10.5852ZM7.36009 10.5852V9.58523H6.36009V10.5852H7.36009ZM7.36009 18V19H8.36009V18H7.36009ZM5.19815 18V0.545454H3.19815V18H5.19815ZM4.19815 1.54545H7.36009V-0.454546H4.19815V1.54545ZM6.36009 0.545454V7.93466H8.36009V0.545454H6.36009ZM7.36009 8.93466H15.4482V6.93466H7.36009V8.93466ZM16.4482 7.93466V0.545454H14.4482V7.93466H16.4482ZM15.4482 1.54545H18.6186V-0.454546H15.4482V1.54545ZM17.6186 0.545454V18H19.6186V0.545454H17.6186ZM18.6186 17H15.4482V19H18.6186V17ZM16.4482 18V10.5852H14.4482V18H16.4482ZM15.4482 9.58523H7.36009V11.5852H15.4482V9.58523ZM6.36009 10.5852V18H8.36009V10.5852H6.36009ZM7.36009 17H4.19815V19H7.36009V17ZM24.3075 17.4119L23.793 18.2694L23.793 18.2694L24.3075 17.4119ZM22.1257 15.0511L21.2333 15.5024L21.2353 15.5063L22.1257 15.0511ZM22.1257 7.9517L21.2343 7.49852L21.2323 7.5025L22.1257 7.9517ZM24.3075 5.58239L24.822 6.43988L24.822 6.43988L24.3075 5.58239ZM30.9553 5.58239L30.4408 6.43988L30.4408 6.43988L30.9553 5.58239ZM33.1286 7.9517L32.2351 8.40092L32.2371 8.40488L33.1286 7.9517ZM33.1286 15.0511L32.2382 14.5959L32.2361 14.5999L33.1286 15.0511ZM30.9553 17.4119L30.4408 16.5544L30.4408 16.5544L30.9553 17.4119ZM29.3871 15.2131L30.0198 15.9875L30.0254 15.9828L29.3871 15.2131ZM30.4268 13.6619L29.4858 13.3235L29.4832 13.3308L30.4268 13.6619ZM30.4268 9.32386L29.4823 9.6524L29.4859 9.66229L30.4268 9.32386ZM29.3871 7.7642L30.0254 6.99445L30.0254 6.99445L29.3871 7.7642ZM25.8757 7.7642L25.242 6.99065L25.2374 6.99445L25.8757 7.7642ZM24.8274 9.32386L23.8855 8.98804L23.8838 8.99278L24.8274 9.32386ZM24.8274 13.6619L23.8838 13.993L23.8864 14.0004L24.8274 13.6619ZM25.8757 15.2131L25.2373 15.9829L25.2476 15.9912L25.8757 15.2131ZM27.6314 17.2557C26.5032 17.2557 25.5795 17.0089 24.822 16.5544L23.793 18.2694C24.9106 18.94 26.2028 19.2557 27.6314 19.2557V17.2557ZM24.822 16.5544C24.0514 16.0921 23.4514 15.4475 23.0161 14.5959L21.2353 15.5063C21.8341 16.6775 22.6886 17.6068 23.793 18.2694L24.822 16.5544ZM23.0181 14.5999C22.5899 13.753 22.3587 12.7312 22.3587 11.5057H20.3587C20.3587 12.9847 20.6388 14.3265 21.2333 15.5024L23.0181 14.5999ZM22.3587 11.5057C22.3587 10.2803 22.5899 9.25471 23.0191 8.40091L21.2323 7.5025C20.6388 8.68278 20.3587 10.0265 20.3587 11.5057H22.3587ZM23.0171 8.40488C23.4529 7.54768 24.0529 6.90137 24.822 6.43988L23.793 4.72489C22.6872 5.3884 21.8326 6.32163 21.2343 7.49852L23.0171 8.40488ZM24.822 6.43988C25.5795 5.98541 26.5032 5.73864 27.6314 5.73864V3.73864C26.2028 3.73864 24.9106 4.05436 23.793 4.72489L24.822 6.43988ZM27.6314 5.73864C28.7596 5.73864 29.6833 5.98541 30.4408 6.43988L31.4698 4.72489C30.3522 4.05436 29.06 3.73864 27.6314 3.73864V5.73864ZM30.4408 6.43988C31.2089 6.90078 31.8052 7.54577 32.2351 8.40091L34.022 7.5025C33.4292 6.32355 32.5766 5.38899 31.4698 4.72489L30.4408 6.43988ZM32.2371 8.40488C32.6707 9.25776 32.9041 10.2819 32.9041 11.5057H34.9041C34.9041 10.0249 34.6205 8.67974 34.02 7.49852L32.2371 8.40488ZM32.9041 11.5057C32.9041 12.7297 32.6707 13.75 32.2382 14.5959L34.0189 15.5063C34.6205 14.3296 34.9041 12.9863 34.9041 11.5057H32.9041ZM32.2361 14.5999C31.8066 15.4494 31.2104 16.0927 30.4408 16.5544L31.4698 18.2694C32.5751 17.6062 33.4278 16.6756 34.021 15.5024L32.2361 14.5999ZM30.4408 16.5544C29.6833 17.0089 28.7596 17.2557 27.6314 17.2557V19.2557C29.06 19.2557 30.3522 18.94 31.4698 18.2694L30.4408 16.5544ZM27.6484 16.7841C28.5353 16.7841 29.3487 16.5358 30.0198 15.9874L28.7544 14.4387C28.4937 14.6517 28.1479 14.7841 27.6484 14.7841V16.7841ZM30.0254 15.9828C30.649 15.4657 31.0913 14.7885 31.3704 13.993L29.4832 13.3308C29.3078 13.8308 29.057 14.1877 28.7487 14.4433L30.0254 15.9828ZM31.3678 14.0004C31.6454 13.2286 31.7763 12.3903 31.7763 11.4972H29.7763C29.7763 12.1949 29.6742 12.7998 29.4859 13.3235L31.3678 14.0004ZM31.7763 11.4972C31.7763 10.5992 31.6457 9.7579 31.3678 8.98544L29.4859 9.66229C29.6739 10.1853 29.7763 10.7928 29.7763 11.4972H31.7763ZM31.3713 8.99534C31.0929 8.19481 30.6508 7.5131 30.0254 6.99445L28.7487 8.53396C29.0551 8.78803 29.3063 9.1461 29.4824 9.65238L31.3713 8.99534ZM30.0254 6.99445C29.3543 6.43794 28.539 6.18466 27.6484 6.18466V8.18466C28.1443 8.18466 28.488 8.31774 28.7487 8.53396L30.0254 6.99445ZM27.6484 6.18466C26.7472 6.18466 25.921 6.43437 25.242 6.99066L26.5095 8.53775C26.7736 8.32131 27.1293 8.18466 27.6484 8.18466V6.18466ZM25.2374 6.99445C24.6139 7.51148 24.1698 8.19051 23.8855 8.98805L25.7693 9.65968C25.9509 9.1504 26.2057 8.78966 26.514 8.53396L25.2374 6.99445ZM23.8838 8.99278C23.6136 9.76301 23.4865 10.6017 23.4865 11.4972H25.4865C25.4865 10.7903 25.5867 10.1802 25.771 9.65495L23.8838 8.99278ZM23.4865 11.4972C23.4865 12.3878 23.6138 13.2235 23.8838 13.993L25.771 13.3308C25.5865 12.8049 25.4865 12.1974 25.4865 11.4972H23.4865ZM23.8864 14.0004C24.1714 14.7928 24.6158 15.4674 25.2374 15.9828L26.514 14.4433C26.2038 14.1861 25.9493 13.8265 25.7684 13.3235L23.8864 14.0004ZM25.2476 15.9912C25.9266 16.5393 26.7507 16.7841 27.6484 16.7841V14.7841C27.1257 14.7841 26.768 14.6482 26.5038 14.435L25.2476 15.9912ZM38.8494 18L37.8871 18.2719L38.0928 19H38.8494V18ZM35.1506 4.90909V3.90909H33.8289L34.1882 5.181L35.1506 4.90909ZM38.2955 4.90909L39.2656 4.66655L39.0762 3.90909H38.2955V4.90909ZM40.5966 14.1136L39.6264 14.3562L39.8158 15.1136H40.5966V14.1136ZM40.7159 14.1136V15.1136H41.4925L41.6848 14.3612L40.7159 14.1136ZM43.0682 4.90909V3.90909H42.2916L42.0993 4.66149L43.0682 4.90909ZM46.179 4.90909L47.1475 4.66019L46.9545 3.90909H46.179V4.90909ZM48.5312 14.0625L47.5627 14.3114L47.7557 15.0625H48.5312V14.0625ZM48.6591 14.0625V15.0625H49.4416L49.6298 14.3029L48.6591 14.0625ZM50.9261 4.90909V3.90909H50.1436L49.9555 4.66868L50.9261 4.90909ZM54.0795 4.90909L55.0417 5.18158L55.4021 3.90909H54.0795V4.90909ZM50.3722 18V19H51.1283L51.3343 18.2725L50.3722 18ZM47.1591 18L46.1955 18.2674L46.3988 19H47.1591V18ZM44.7045 9.15341L45.6681 8.88605L45.4649 8.15341H44.7045V9.15341ZM44.5256 9.15341V8.15341H43.7652L43.562 8.88605L44.5256 9.15341ZM42.071 18V19H42.8313L43.0346 18.2674L42.071 18ZM39.8118 17.7281L36.1129 4.63718L34.1882 5.181L37.8871 18.2719L39.8118 17.7281ZM35.1506 5.90909H38.2955V3.90909H35.1506V5.90909ZM37.3253 5.15163L39.6264 14.3562L41.5667 13.8711L39.2656 4.66655L37.3253 5.15163ZM40.5966 15.1136H40.7159V13.1136H40.5966V15.1136ZM41.6848 14.3612L44.037 5.15669L42.0993 4.66149L39.747 13.866L41.6848 14.3612ZM43.0682 5.90909H46.179V3.90909H43.0682V5.90909ZM45.2104 5.15799L47.5627 14.3114L49.4998 13.8136L47.1475 4.66019L45.2104 5.15799ZM48.5312 15.0625H48.6591V13.0625H48.5312V15.0625ZM49.6298 14.3029L51.8968 5.1495L49.9555 4.66868L47.6884 13.8221L49.6298 14.3029ZM50.9261 5.90909H54.0795V3.90909H50.9261V5.90909ZM53.1174 4.6366L49.41 17.7275L51.3343 18.2725L55.0417 5.18158L53.1174 4.6366ZM50.3722 17H47.1591V19H50.3722V17ZM48.1227 17.7326L45.6681 8.88605L43.7409 9.42077L46.1955 18.2674L48.1227 17.7326ZM44.7045 8.15341H44.5256V10.1534H44.7045V8.15341ZM43.562 8.88605L41.1074 17.7326L43.0346 18.2674L45.4892 9.42077L43.562 8.88605ZM42.071 17H38.8494V19H42.071V17ZM57.7592 17.821L57.3436 18.7306L57.3531 18.7348L57.7592 17.821ZM56.1911 16.4915L55.3528 17.0368L55.3565 17.0424L56.1911 16.4915ZM56.0291 12.4943L55.1584 12.0026L55.1584 12.0026L56.0291 12.4943ZM57.1456 11.3352L56.6221 10.4832L56.6221 10.4832L57.1456 11.3352ZM58.7393 10.679L58.9819 11.6491L58.9884 11.6475L58.7393 10.679ZM60.5888 10.3466L60.4856 9.35192L60.4822 9.35228L60.5888 10.3466ZM62.4553 10.1335L62.5851 11.1251L62.5967 11.1235L62.4553 10.1335ZM63.495 9.8267L64.029 10.6722L64.0347 10.6686L63.495 9.8267ZM63.2564 7.62784L63.9356 6.89388L63.9356 6.89388L63.2564 7.62784ZM59.8132 7.59375L59.2165 6.79127L59.2116 6.795L59.8132 7.59375ZM58.9268 8.76136L58.7862 9.75143L59.6055 9.86777L59.8731 9.08477L58.9268 8.76136ZM56.0462 8.35227L55.0846 8.07755L54.7694 9.18099L55.9056 9.34234L56.0462 8.35227ZM57.1712 6.35795L57.8858 7.05743L57.8895 7.05363L57.1712 6.35795ZM59.0888 5.14773L59.422 6.09061L59.4282 6.08834L59.0888 5.14773ZM65.1911 5.69318L64.6406 6.52807L64.647 6.53226L65.1911 5.69318ZM66.4354 7.06534L65.5552 7.53997L65.5588 7.5466L66.4354 7.06534ZM66.9126 18V19H67.9126V18H66.9126ZM63.9467 18H62.9467V19H63.9467V18ZM63.9467 16.2017H64.9467V15.2017H63.9467V16.2017ZM63.8445 16.2017V15.2017H63.235L62.9557 15.7434L63.8445 16.2017ZM63.0518 17.2244L63.7337 17.9559L63.7342 17.9555L63.0518 17.2244ZM61.782 17.983L62.1296 18.9206L62.1354 18.9184L61.782 17.983ZM62.4126 15.6307L62.8861 16.5115L62.8946 16.5069L62.4126 15.6307ZM63.4609 14.642L62.6076 14.1206L62.6024 14.1293L63.4609 14.642ZM63.8359 11.7614H64.8359V9.64237L63.2002 10.9894L63.8359 11.7614ZM63.3416 11.983L63.0607 11.0232L63.0543 11.0251L63.3416 11.983ZM62.5746 12.1619L62.7517 13.1461L62.7517 13.1461L62.5746 12.1619ZM61.0064 12.4006L61.141 13.3915L61.144 13.3911L61.0064 12.4006ZM59.7706 12.7074L59.4067 11.7759L59.4067 11.7759L59.7706 12.7074ZM58.9098 13.304L59.6752 13.9476L59.6822 13.9391L58.9098 13.304ZM59.2166 15.5625L58.6439 16.3823L58.6439 16.3823L59.2166 15.5625ZM60.0007 17.2642C59.2915 17.2642 58.6855 17.1384 58.1654 16.9072L57.3531 18.7348C58.1625 19.0946 59.0508 19.2642 60.0007 19.2642V17.2642ZM58.1748 16.9115C57.6802 16.6855 57.3051 16.3639 57.0256 15.9405L55.3565 17.0424C55.8497 17.7895 56.52 18.3543 57.3437 18.7306L58.1748 16.9115ZM57.0293 15.9462C56.7761 15.5569 56.62 15.0356 56.62 14.3267H54.62C54.62 15.3337 54.8447 16.2556 55.3528 17.0368L57.0293 15.9462ZM56.62 14.3267C56.62 13.7052 56.7354 13.2773 56.8999 12.986L55.1584 12.0026C54.7774 12.6773 54.62 13.4709 54.62 14.3267H56.62ZM56.8999 12.986C57.0894 12.6503 57.3422 12.3881 57.6691 12.1872L56.6221 10.4832C56.0058 10.8619 55.5143 11.3724 55.1584 12.0026L56.8999 12.986ZM57.6691 12.1872C58.0454 11.9561 58.4802 11.7745 58.9819 11.6491L58.4968 9.70883C57.8166 9.87888 57.189 10.1349 56.6221 10.4832L57.6691 12.1872ZM58.9884 11.6475C59.5364 11.5066 60.1052 11.4041 60.6953 11.3409L60.4822 9.35228C59.7997 9.42541 59.1355 9.54458 58.4903 9.71048L58.9884 11.6475ZM60.6919 11.3413C61.4633 11.2613 62.0953 11.1892 62.5851 11.1251L62.3254 9.14199C61.8607 9.20285 61.2484 9.27283 60.4856 9.35192L60.6919 11.3413ZM62.5967 11.1235C63.1114 11.0499 63.6299 10.9243 64.029 10.6722L62.961 8.98122C62.9611 8.98115 62.9579 8.98319 62.9506 8.98696C62.9433 8.99071 62.9326 8.99582 62.918 9.002C62.8885 9.01456 62.8466 9.0299 62.7901 9.04657C62.6756 9.08036 62.5193 9.11422 62.3138 9.14357L62.5967 11.1235ZM64.0347 10.6686C64.5823 10.3175 64.8274 9.75731 64.8274 9.17045H62.8274C62.8274 9.19301 62.8236 9.16082 62.8522 9.10427C62.8661 9.07684 62.8842 9.05078 62.905 9.02823C62.9255 9.00599 62.944 8.99213 62.9554 8.98482L64.0347 10.6686ZM64.8274 9.17045V9.11932H62.8274V9.17045H64.8274ZM64.8274 9.11932C64.8274 8.26973 64.5677 7.47885 63.9356 6.89388L62.5772 8.3618C62.7064 8.48138 62.8274 8.68482 62.8274 9.11932H64.8274ZM63.9356 6.89388C63.3097 6.31468 62.4827 6.09943 61.6115 6.09943V8.09943C62.1722 8.09943 62.4418 8.23646 62.5772 8.3618L63.9356 6.89388ZM61.6115 6.09943C60.7187 6.09943 59.8856 6.29373 59.2165 6.79129L60.4099 8.39621C60.6272 8.23468 60.993 8.09943 61.6115 8.09943V6.09943ZM59.2116 6.795C58.6396 7.22578 58.2083 7.77169 57.9806 8.43796L59.8731 9.08477C59.9522 8.85331 60.1118 8.62081 60.4149 8.3925L59.2116 6.795ZM59.0674 7.7713L56.1868 7.36221L55.9056 9.34234L58.7862 9.75143L59.0674 7.7713ZM57.0077 8.62699C57.1943 7.97399 57.4915 7.46033 57.8858 7.05742L56.4565 5.65849C55.8054 6.32376 55.3526 7.13964 55.0846 8.07755L57.0077 8.62699ZM57.8895 7.05363C58.2976 6.63225 58.8021 6.30963 59.422 6.09059L58.7556 4.20487C57.8641 4.51991 57.0902 5.00411 56.4528 5.66228L57.8895 7.05363ZM59.4282 6.08834C60.0611 5.85995 60.7796 5.73864 61.5945 5.73864V3.73864C60.5798 3.73864 59.6278 3.89005 58.7493 4.20711L59.4282 6.08834ZM61.5945 5.73864C62.1463 5.73864 62.6969 5.80317 63.248 5.93341L63.708 3.98704C63.009 3.82183 62.304 3.73864 61.5945 3.73864V5.73864ZM63.248 5.93341C63.7631 6.05518 64.225 6.25405 64.6406 6.52804L65.7415 4.85832C65.123 4.4505 64.4428 4.16073 63.708 3.98704L63.248 5.93341ZM64.647 6.53226C65.0136 6.7699 65.3167 7.09775 65.5552 7.53995L67.3156 6.59073C66.929 5.87384 66.4026 5.28691 65.7351 4.85411L64.647 6.53226ZM65.5588 7.5466C65.7745 7.93946 65.9126 8.48632 65.9126 9.23864H67.9126C67.9126 8.25232 67.7326 7.35031 67.3119 6.58408L65.5588 7.5466ZM65.9126 9.23864V18H67.9126V9.23864H65.9126ZM66.9126 17H63.9467V19H66.9126V17ZM64.9467 18V16.2017H62.9467V18H64.9467ZM63.9467 15.2017H63.8445V17.2017H63.9467V15.2017ZM62.9557 15.7434C62.8276 15.9917 62.638 16.2428 62.3695 16.4934L63.7342 17.9555C64.1475 17.5697 64.4863 17.1389 64.7333 16.66L62.9557 15.7434ZM62.37 16.493C62.1464 16.7014 61.8412 16.8916 61.4286 17.0475L62.1354 18.9184C62.7455 18.6879 63.2869 18.3725 63.7337 17.9559L62.37 16.493ZM61.4343 17.0453C61.0649 17.1823 60.5939 17.2642 60.0007 17.2642V19.2642C60.7712 19.2642 61.4876 19.1586 62.1296 18.9206L61.4343 17.0453ZM60.8018 16.9972C61.5535 16.9972 62.2595 16.8483 62.8861 16.5115L61.9392 14.7499C61.6567 14.9017 61.2888 14.9972 60.8018 14.9972V16.9972ZM62.8946 16.5069C63.4905 16.1792 63.9761 15.7297 64.3195 15.1548L62.6024 14.1293C62.4571 14.3726 62.2439 14.5822 61.9307 14.7545L62.8946 16.5069ZM64.3142 15.1635C64.6609 14.5962 64.8359 13.9695 64.8359 13.304H62.8359C62.8359 13.6044 62.761 13.8697 62.6077 14.1206L64.3142 15.1635ZM64.8359 13.304V11.7614H62.8359V13.304H64.8359ZM63.2002 10.9894C63.2242 10.9697 63.2408 10.9597 63.2445 10.9575C63.2486 10.9552 63.2449 10.9576 63.2309 10.9639C63.2014 10.9771 63.1473 10.9979 63.0607 11.0232L63.6225 12.9427C63.8862 12.8655 64.213 12.7463 64.4716 12.5333L63.2002 10.9894ZM63.0543 11.0251C62.8699 11.0804 62.652 11.1319 62.3974 11.1777L62.7517 13.1461C63.0654 13.0897 63.3587 13.0218 63.629 12.9408L63.0543 11.0251ZM62.3974 11.1777C62.1249 11.2268 61.8556 11.2703 61.5894 11.3083L61.8722 13.2882C62.1629 13.2467 62.4561 13.1993 62.7517 13.1461L62.3974 11.1777ZM61.5894 11.3083C61.3119 11.348 61.0717 11.3819 60.8688 11.4101L61.144 13.3911C61.3502 13.3624 61.593 13.3281 61.8722 13.2882L61.5894 11.3083ZM60.8718 11.4097C60.3474 11.4809 59.8565 11.6002 59.4067 11.7759L60.1344 13.6388C60.4119 13.5305 60.7449 13.4453 61.141 13.3915L60.8718 11.4097ZM59.4067 11.7759C58.9125 11.969 58.4742 12.2592 58.1374 12.6689L59.6822 13.9391C59.7658 13.8374 59.9014 13.7299 60.1344 13.6388L59.4067 11.7759ZM58.1444 12.6604C57.7516 13.1275 57.5945 13.6956 57.5945 14.2756H59.5945C59.5945 14.0601 59.6475 13.9804 59.6752 13.9476L58.1444 12.6604ZM57.5945 14.2756C57.5945 15.1237 57.9253 15.8802 58.6439 16.3823L59.7893 14.7427C59.6784 14.6653 59.5945 14.5638 59.5945 14.2756H57.5945ZM58.6439 16.3823C59.2668 16.8174 60.0101 16.9972 60.8018 16.9972V14.9972C60.3095 14.9972 59.996 14.8871 59.7893 14.7427L58.6439 16.3823ZM70.0149 18H69.0149V19H70.0149V18ZM70.0149 4.90909V3.90909H69.0149V4.90909H70.0149ZM73.0064 4.90909H74.0064V3.90909H73.0064V4.90909ZM73.0064 7.09091H72.0064V8.09091H73.0064V7.09091ZM73.1428 7.09091V8.09091H73.8756L74.0963 7.39204L73.1428 7.09091ZM74.37 5.34375L74.9467 6.16072L74.9483 6.15962L74.37 5.34375ZM76.9439 4.74716L76.8631 5.74389L76.8772 5.74503L76.8913 5.74578L76.9439 4.74716ZM77.4808 4.80682H78.4808V3.98701L77.6769 3.82624L77.4808 4.80682ZM77.4808 7.64489L77.1523 8.58938L78.4808 9.05148V7.64489H77.4808ZM76.8587 7.52557L76.7172 8.51552L76.7284 8.51711L76.7395 8.51844L76.8587 7.52557ZM74.532 7.83239L75.0061 8.71287L75.01 8.71071L74.532 7.83239ZM73.1001 18V19H74.1001V18H73.1001ZM71.0149 18V4.90909H69.0149V18H71.0149ZM70.0149 5.90909H73.0064V3.90909H70.0149V5.90909ZM72.0064 4.90909V7.09091H74.0064V4.90909H72.0064ZM73.0064 8.09091H73.1428V6.09091H73.0064V8.09091ZM74.0963 7.39204C74.2772 6.81918 74.5667 6.42899 74.9467 6.16072L73.7933 4.52678C73.0143 5.07669 72.4855 5.85127 72.1892 6.78978L74.0963 7.39204ZM74.9483 6.15962C75.3565 5.87031 75.82 5.72159 76.3729 5.72159V3.72159C75.4257 3.72159 74.554 3.98764 73.7918 4.52788L74.9483 6.15962ZM76.3729 5.72159C76.5109 5.72159 76.6737 5.72853 76.8631 5.74389L77.0247 3.75043C76.7936 3.73169 76.5757 3.72159 76.3729 3.72159V5.72159ZM76.8913 5.74578C77.08 5.75571 77.2069 5.77185 77.2847 5.7874L77.6769 3.82624C77.4706 3.78497 77.2396 3.76134 76.9965 3.74854L76.8913 5.74578ZM76.4808 4.80682V7.64489H78.4808V4.80682H76.4808ZM77.8093 6.70039C77.5715 6.61765 77.2745 6.56829 76.9778 6.53269L76.7395 8.51844C76.8659 8.53361 76.9646 8.54881 77.0389 8.56307C77.0757 8.57013 77.1037 8.5764 77.124 8.58152C77.1448 8.58676 77.1533 8.58972 77.1523 8.58938L77.8093 6.70039ZM77.0001 6.53562C76.6783 6.48965 76.3611 6.46591 76.049 6.46591V8.46591C76.2596 8.46591 76.4822 8.48194 76.7172 8.51552L77.0001 6.53562ZM76.049 6.46591C75.3367 6.46591 74.6638 6.62207 74.0539 6.95407L75.01 8.71071C75.2978 8.55407 75.6363 8.46591 76.049 8.46591V6.46591ZM74.0579 6.95191C73.4584 7.27468 72.9757 7.73258 72.6262 8.31505L74.3412 9.34404C74.503 9.07424 74.7191 8.86736 75.0061 8.71286L74.0579 6.95191ZM72.6262 8.31505C72.2664 8.91474 72.1001 9.5883 72.1001 10.304H74.1001C74.1001 9.90602 74.1896 9.59663 74.3412 9.34404L72.6262 8.31505ZM72.1001 10.304V18H74.1001V10.304H72.1001ZM73.1001 17H70.0149V19H73.1001V17ZM81.0881 17.4375L80.5429 18.2758L81.0881 17.4375ZM79.1619 15.1364L80.0673 14.7118L80.0673 14.7118L79.1619 15.1364ZM79.1705 7.78977L78.269 7.35687L78.268 7.35904L79.1705 7.78977ZM81.1222 5.5142L81.6522 6.36221L81.6564 6.35955L81.1222 5.5142ZM85.75 5.13068L85.2826 6.01475L85.2906 6.0189L85.75 5.13068ZM86.9261 6.05966L86.1441 6.68288L86.1489 6.68886L86.9261 6.05966ZM87.5994 7.07386L86.705 7.52108L86.9814 8.07386H87.5994V7.07386ZM87.7273 7.07386V8.07386H88.7273V7.07386H87.7273ZM87.7273 0.545454V-0.454546H86.7273V0.545454H87.7273ZM90.821 0.545454H91.821V-0.454546H90.821V0.545454ZM90.821 18V19H91.821V18H90.821ZM87.7869 18H86.7869V19H87.7869V18ZM87.7869 15.9375H88.7869V14.9375H87.7869V15.9375ZM87.5994 15.9375V14.9375H86.9814L86.705 15.4903L87.5994 15.9375ZM86.9091 16.9517L87.6692 17.6015L87.6743 17.5955L86.9091 16.9517ZM85.7159 17.8551L86.1672 18.7475L86.1672 18.7475L85.7159 17.8551ZM86.3807 15.1705L86.9885 15.9646L86.9946 15.9598L86.3807 15.1705ZM87.429 13.679L86.4926 13.3279L86.4926 13.3279L87.429 13.679ZM87.429 9.24716L86.4919 9.59643L86.4948 9.60386L87.429 9.24716ZM86.3892 7.78977L85.7829 8.58499L85.7876 8.58859L86.3892 7.78977ZM82.9886 7.80682L82.3747 7.01747L82.3747 7.01747L82.9886 7.80682ZM81.9489 9.28977L81.0108 8.94328L81.0108 8.94328L81.9489 9.28977ZM81.9489 13.6449L81.0088 13.986L81.0125 13.996L81.9489 13.6449ZM82.9972 15.1534L82.3712 15.9334L82.3819 15.9417L82.9972 15.1534ZM83.8494 17.2301C83.0022 17.2301 82.2734 17.0155 81.6333 16.5992L80.5429 18.2758C81.5277 18.9163 82.6399 19.2301 83.8494 19.2301V17.2301ZM81.6333 16.5992C80.9988 16.1866 80.4716 15.5739 80.0673 14.7118L78.2565 15.5609C78.7955 16.7102 79.5523 17.6316 80.5429 18.2758L81.6333 16.5992ZM80.0673 14.7118C79.6735 13.872 79.4545 12.8039 79.4545 11.4716H77.4545C77.4545 13.0143 77.7071 14.3893 78.2565 15.5609L80.0673 14.7118ZM79.4545 11.4716C79.4545 10.1214 79.6767 9.05079 80.0729 8.2205L78.268 7.35904C77.7097 8.52876 77.4545 9.91265 77.4545 11.4716H79.4545ZM80.0719 8.22267C80.4859 7.36049 81.0184 6.75827 81.6522 6.3622L80.5922 4.66621C79.5895 5.29287 78.8209 6.20769 78.269 7.35688L80.0719 8.22267ZM81.6564 6.35955C82.3082 5.94761 83.0336 5.73864 83.858 5.73864V3.73864C82.6709 3.73864 81.5724 4.04671 80.5879 4.66885L81.6564 6.35955ZM83.858 5.73864C84.5196 5.73864 84.9758 5.85251 85.2826 6.01472L86.2174 4.24665C85.5356 3.88613 84.7304 3.73864 83.858 3.73864V5.73864ZM85.2906 6.0189C85.6841 6.22245 85.9575 6.44876 86.1441 6.68286L87.7082 5.43646C87.3152 4.94328 86.8045 4.55028 86.2094 4.24246L85.2906 6.0189ZM86.1489 6.68886C86.4057 7.00607 86.5861 7.28331 86.705 7.52108L88.4939 6.62665C88.2946 6.22806 88.0261 5.82915 87.7034 5.43046L86.1489 6.68886ZM87.5994 8.07386H87.7273V6.07386H87.5994V8.07386ZM88.7273 7.07386V0.545454H86.7273V7.07386H88.7273ZM87.7273 1.54545H90.821V-0.454546H87.7273V1.54545ZM89.821 0.545454V18H91.821V0.545454H89.821ZM90.821 17H87.7869V19H90.821V17ZM88.7869 18V15.9375H86.7869V18H88.7869ZM87.7869 14.9375H87.5994V16.9375H87.7869V14.9375ZM86.705 15.4903C86.5901 15.7201 86.4092 15.9925 86.1439 16.3079L87.6743 17.5955C88.0112 17.195 88.2906 16.7913 88.4939 16.3847L86.705 15.4903ZM86.149 16.3019C85.9488 16.5361 85.6635 16.761 85.2646 16.9627L86.1672 18.7475C86.7569 18.4492 87.2671 18.0718 87.6692 17.6015L86.149 16.3019ZM85.2646 16.9627C84.9507 17.1215 84.4955 17.2301 83.8494 17.2301V19.2301C84.7034 19.2301 85.4924 19.0887 86.1672 18.7475L85.2646 16.9627ZM84.7102 16.6989C85.554 16.6989 86.3318 16.4672 86.9885 15.9645L85.7729 14.3764C85.5091 14.5783 85.1733 14.6989 84.7102 14.6989V16.6989ZM86.9946 15.9598C87.6235 15.4707 88.0727 14.8104 88.3653 14.0301L86.4926 13.3279C86.308 13.8203 86.0583 14.1543 85.7667 14.3811L86.9946 15.9598ZM88.3653 14.0301C88.655 13.2577 88.7869 12.3927 88.7869 11.4545H86.7869C86.7869 12.2096 86.6803 12.8276 86.4926 13.3279L88.3653 14.0301ZM88.7869 11.4545C88.7869 10.517 88.6552 9.65511 88.3632 8.89046L86.4948 9.60386C86.6801 10.0892 86.7869 10.6989 86.7869 11.4545H88.7869ZM88.366 8.8979C88.0771 8.12292 87.6263 7.46952 86.9908 6.99096L85.7876 8.58859C86.0726 8.80321 86.3149 9.12139 86.492 9.59641L88.366 8.8979ZM86.9955 6.99457C86.3394 6.49424 85.5569 6.26989 84.7102 6.26989V8.26989C85.1931 8.26989 85.5299 8.39212 85.7829 8.58498L86.9955 6.99457ZM84.7102 6.26989C83.8417 6.26989 83.0405 6.49959 82.3747 7.01747L83.6026 8.59617C83.8572 8.39814 84.2037 8.26989 84.7102 8.26989V6.26989ZM82.3747 7.01747C81.7458 7.50659 81.2983 8.16497 81.0108 8.94328L82.8869 9.63626C83.0653 9.15321 83.311 8.82296 83.6026 8.59617L82.3747 7.01747ZM81.0108 8.94328C80.7293 9.70532 80.5994 10.5477 80.5994 11.4545H82.5994C82.5994 10.7364 82.7025 10.1356 82.8869 9.63626L81.0108 8.94328ZM80.5994 11.4545C80.5994 12.3666 80.7292 13.2153 81.0088 13.986L82.8889 13.3038C82.7026 12.7903 82.5994 12.1788 82.5994 11.4545H80.5994ZM81.0125 13.996C81.3045 14.7747 81.7508 15.4354 82.3713 15.9333L83.623 14.3735C83.3231 14.1328 83.0705 13.7878 82.8852 13.2938L81.0125 13.996ZM82.3819 15.9417C83.0484 16.4619 83.8448 16.6989 84.7102 16.6989V14.6989C84.2234 14.6989 83.8778 14.5722 83.6124 14.3651L82.3819 15.9417Z" fill="black" mask="url(#path-1-outside-1_3025_8669)"/>
</g>
<defs>
<filter id="filter0_d_3025_8669" x="0.198151" y="0.545456" width="94.6229" height="25.7188" filterUnits="userSpaceOnUse" color-interpolation-filters="sRGB">
<feFlood flood-opacity="0" result="BackgroundImageFix"/>
<feColorMatrix in="SourceAlpha" type="matrix" values="0 0 0 0 0 0 0 0 0 0 0 0 0 0 0 0 0 0 127 0" result="hardAlpha"/>
<feOffset dy="4"/>
<feGaussianBlur stdDeviation="2"/>
<feComposite in2="hardAlpha" operator="out"/>
<feColorMatrix type="matrix" values="0 0 0 0 0 0 0 0 0 0 0 0 0 0 0 0 0 0 0.25 0"/>
<feBlend mode="normal" in2="BackgroundImageFix" result="effect1_dropShadow_3025_8669"/>
<feBlend mode="normal" in="SourceGraphic" in2="effect1_dropShadow_3025_8669" result="shape"/>
</filter>
</defs>
</svg>
