<svg width="135" height="24" viewBox="0 0 135 24" fill="none" xmlns="http://www.w3.org/2000/svg">
<path d="M27.616 6.70035C22.7353 6.70035 18.9217 10.4054 18.9217 15.3654C18.9217 20.3254 22.6389 23.9988 27.616 23.9988C32.5931 23.9988 36.375 20.262 36.375 15.3337C36.375 10.4371 32.6577 6.70035 27.616 6.70035ZM27.6489 20.4242C24.8695 20.4242 22.8328 18.2656 22.8328 15.3666C22.8328 12.4348 24.8366 10.2774 27.616 10.2774C30.4283 10.2774 32.4638 12.4677 32.4638 15.3666C32.4638 18.2656 30.4283 20.4242 27.6489 20.4242ZM37.4409 10.47H39.8652V23.678H43.7435V7.02233H37.4409V10.47ZM9.16141 10.2761C11.1981 10.2761 12.814 11.5323 13.4275 13.4007H17.5326C16.7886 9.40658 13.4921 6.70035 9.19434 6.70035C4.3136 6.70035 0.5 10.4054 0.5 15.3666C0.5 20.3279 4.21726 24 9.19434 24C13.3958 24 16.7569 21.2938 17.5008 17.2667H13.4275C12.8457 19.1351 11.2298 20.4242 9.19314 20.4242C6.38079 20.4242 4.40994 18.2656 4.40994 15.3666C4.41117 12.4348 6.3503 10.2761 9.16141 10.2761ZM111.13 13.7556L108.286 13.3373C106.929 13.1446 105.959 12.6933 105.959 11.6299C105.959 10.47 107.22 9.89074 108.932 9.89074C110.807 9.89074 112.003 10.6957 112.262 12.0165H116.011C115.59 8.66629 113.004 6.70155 109.03 6.70155C104.925 6.70155 102.21 8.79559 102.21 11.7591C102.21 14.5934 103.988 16.2374 107.575 16.7521L110.419 17.1704C111.809 17.3631 112.585 17.9119 112.585 18.9424C112.585 20.2632 111.228 20.8108 109.353 20.8108C107.058 20.8108 105.765 19.8766 105.571 18.4595H101.757C102.114 21.7133 104.666 24 109.32 24C113.555 24 116.366 22.067 116.366 18.7485C116.366 15.7849 114.33 14.2385 111.13 13.7556ZM41.8044 0.160984C40.3824 0.160984 39.3155 1.19152 39.3155 2.60867C39.3155 4.02581 40.3812 5.05635 41.8044 5.05635C43.2264 5.05635 44.2936 4.02581 44.2936 2.60867C44.2936 1.19152 43.2264 0.160984 41.8044 0.160984ZM98.7196 12.725C98.7196 9.11753 96.5221 6.70155 91.868 6.70155C87.4726 6.70155 85.0163 8.92485 84.5311 12.3396H88.3775C88.5714 11.0189 89.6056 9.92366 91.8035 9.92366C93.7756 9.92366 94.745 10.7932 94.745 11.8567C94.745 13.2422 92.9667 13.5958 90.7692 13.8215C87.7959 14.1434 84.1115 15.1739 84.1115 19.04C84.1115 22.0365 86.342 23.9683 89.8974 23.9683C92.6765 23.9683 94.4217 22.8085 95.2951 20.9718C95.4245 22.6146 96.6526 23.678 98.366 23.678H100.628V20.2315H98.7207V12.725H98.7196ZM94.9059 16.9131C94.9059 19.1363 92.9667 20.7791 90.6069 20.7791C89.1522 20.7791 87.9241 20.1669 87.9241 18.879C87.9241 17.2362 89.8959 16.785 91.706 16.5923C93.4512 16.4313 94.4206 16.0447 94.9059 15.3032V16.9131ZM74.3184 6.70035C72.1524 6.70035 70.3426 7.60283 69.05 9.11633V0H65.1717V23.678H68.9851V21.4877C70.2777 23.0658 72.1209 24 74.3184 24C78.9721 24 82.4956 20.3279 82.4956 15.3666C82.4956 10.4054 78.9076 6.70035 74.3184 6.70035ZM73.7367 20.4242C70.9572 20.4242 68.9206 18.2656 68.9206 15.3666C68.9206 12.4677 70.9891 10.2774 73.7682 10.2774C76.5807 10.2774 78.5514 12.436 78.5514 15.3666C78.5514 18.2656 76.5159 20.4242 73.7367 20.4242ZM55.8954 6.70035C53.3746 6.70035 51.7257 7.73089 50.7564 9.18094V7.02233H46.9096V23.6768H50.7879V14.6252C50.7879 12.0799 52.4037 10.2761 54.7955 10.2761C57.026 10.2761 58.415 11.8543 58.415 14.1422V23.678H62.2932V13.8531C62.2947 9.6639 60.1299 6.70035 55.8954 6.70035ZM134.853 14.8191C134.853 10.0517 131.363 6.70155 126.676 6.70155C121.699 6.70155 118.046 10.4383 118.046 15.3666C118.046 20.5535 121.957 24 126.741 24C130.781 24 133.948 21.6157 134.756 18.2339H130.715C130.133 19.7156 128.711 20.5535 126.804 20.5535C124.315 20.5535 122.44 19.0071 122.021 16.3008H134.852V14.8191H134.853ZM122.247 13.53C122.862 11.2103 124.607 10.0835 126.611 10.0835C128.809 10.0835 130.49 11.3396 130.877 13.53H122.247Z" fill="#0052FF"/>
</svg>
